<svg width="160" height="28" viewBox="0 0 160 28" fill="none" xmlns="http://www.w3.org/2000/svg">
<g clip-path="url(#clip0_2_63)">
<path d="M16.25 5.625V22.125C16.25 23.9713 17.5237 25 18.875 25C20.125 25 21.5 24.125 21.5 22.125V5.75C21.5 4.0575 20.25 3 18.875 3C17.5 3 16.25 4.16625 16.25 5.625Z" fill="#16538E" fill-opacity="0.6"/>
<path d="M9.375 14V22.125C9.375 23.9713 10.6487 25 12 25C13.25 25 14.625 24.125 14.625 22.125V14.125C14.625 12.4325 13.375 11.375 12 11.375C10.625 11.375 9.375 12.5412 9.375 14Z" fill="#16538E" fill-opacity="0.8"/>
<path d="M5.125 25C6.57475 25 7.75 23.8247 7.75 22.375C7.75 20.9253 6.57475 19.75 5.125 19.75C3.67525 19.75 2.5 20.9253 2.5 22.375C2.5 23.8247 3.67525 25 5.125 25Z" fill="#16538E"/>
</g>
<path d="M35.9648 22L42.5625 4.82031H45.0117L52.043 22H49.4531L47.4492 16.7969H40.2656L38.3789 22H35.9648ZM40.9219 14.9453H46.7461L44.9531 10.1875C44.4062 8.74219 44 7.55469 43.7344 6.625C43.5156 7.72656 43.207 8.82031 42.8086 9.90625L40.9219 14.9453ZM53.5898 22V9.55469H55.4883V11.3242C56.4023 9.95703 57.7227 9.27344 59.4492 9.27344C60.1992 9.27344 60.8867 9.41016 61.5117 9.68359C62.1445 9.94922 62.6172 10.3008 62.9297 10.7383C63.2422 11.1758 63.4609 11.6953 63.5859 12.2969C63.6641 12.6875 63.7031 13.3711 63.7031 14.3477V22H61.5938V14.4297C61.5938 13.5703 61.5117 12.9297 61.3477 12.5078C61.1836 12.0781 60.8906 11.7383 60.4688 11.4883C60.0547 11.2305 59.5664 11.1016 59.0039 11.1016C58.1055 11.1016 57.3281 11.3867 56.6719 11.957C56.0234 12.5273 55.6992 13.6094 55.6992 15.2031V22H53.5898ZM75.0703 20.4648C74.2891 21.1289 73.5352 21.5977 72.8086 21.8711C72.0898 22.1445 71.3164 22.2812 70.4883 22.2812C69.1211 22.2812 68.0703 21.9492 67.3359 21.2852C66.6016 20.6133 66.2344 19.7578 66.2344 18.7188C66.2344 18.1094 66.3711 17.5547 66.6445 17.0547C66.9258 16.5469 67.2891 16.1406 67.7344 15.8359C68.1875 15.5312 68.6953 15.3008 69.2578 15.1445C69.6719 15.0352 70.2969 14.9297 71.1328 14.8281C72.8359 14.625 74.0898 14.3828 74.8945 14.1016C74.9023 13.8125 74.9062 13.6289 74.9062 13.5508C74.9062 12.6914 74.707 12.0859 74.3086 11.7344C73.7695 11.2578 72.9688 11.0195 71.9062 11.0195C70.9141 11.0195 70.1797 11.1953 69.7031 11.5469C69.2344 11.8906 68.8867 12.5039 68.6602 13.3867L66.5977 13.1055C66.7852 12.2227 67.0938 11.5117 67.5234 10.9727C67.9531 10.4258 68.5742 10.0078 69.3867 9.71875C70.1992 9.42188 71.1406 9.27344 72.2109 9.27344C73.2734 9.27344 74.1367 9.39844 74.8008 9.64844C75.4648 9.89844 75.9531 10.2148 76.2656 10.5977C76.5781 10.9727 76.7969 11.4492 76.9219 12.0273C76.9922 12.3867 77.0273 13.0352 77.0273 13.9727V16.7852C77.0273 18.7461 77.0703 19.9883 77.1562 20.5117C77.25 21.0273 77.4297 21.5234 77.6953 22H75.4922C75.2734 21.5625 75.1328 21.0508 75.0703 20.4648ZM74.8945 15.7539C74.1289 16.0664 72.9805 16.332 71.4492 16.5508C70.582 16.6758 69.9688 16.8164 69.6094 16.9727C69.25 17.1289 68.9727 17.3594 68.7773 17.6641C68.582 17.9609 68.4844 18.293 68.4844 18.6602C68.4844 19.2227 68.6953 19.6914 69.1172 20.0664C69.5469 20.4414 70.1719 20.6289 70.9922 20.6289C71.8047 20.6289 72.5273 20.4531 73.1602 20.1016C73.793 19.7422 74.2578 19.2539 74.5547 18.6367C74.7812 18.1602 74.8945 17.457 74.8945 16.5273V15.7539ZM80.2617 22V4.82031H82.3711V22H80.2617ZM85.5586 26.793L85.3242 24.8125C85.7852 24.9375 86.1875 25 86.5312 25C87 25 87.375 24.9219 87.6562 24.7656C87.9375 24.6094 88.168 24.3906 88.3477 24.1094C88.4805 23.8984 88.6953 23.375 88.9922 22.5391C89.0312 22.4219 89.0938 22.25 89.1797 22.0234L84.457 9.55469H86.7305L89.3203 16.7617C89.6562 17.6758 89.957 18.6367 90.2227 19.6445C90.4648 18.6758 90.7539 17.7305 91.0898 16.8086L93.75 9.55469H95.8594L91.125 22.2109C90.6172 23.5781 90.2227 24.5195 89.9414 25.0352C89.5664 25.7305 89.1367 26.2383 88.6523 26.5586C88.168 26.8867 87.5898 27.0508 86.918 27.0508C86.5117 27.0508 86.0586 26.9648 85.5586 26.793ZM96.8086 18.2852L98.8945 17.957C99.0117 18.793 99.3359 19.4336 99.8672 19.8789C100.406 20.3242 101.156 20.5469 102.117 20.5469C103.086 20.5469 103.805 20.3516 104.273 19.9609C104.742 19.5625 104.977 19.0977 104.977 18.5664C104.977 18.0898 104.77 17.7148 104.355 17.4414C104.066 17.2539 103.348 17.0156 102.199 16.7266C100.652 16.3359 99.5781 16 98.9766 15.7188C98.3828 15.4297 97.9297 15.0352 97.6172 14.5352C97.3125 14.0273 97.1602 13.4688 97.1602 12.8594C97.1602 12.3047 97.2852 11.793 97.5352 11.3242C97.793 10.8477 98.1406 10.4531 98.5781 10.1406C98.9062 9.89844 99.3516 9.69531 99.9141 9.53125C100.484 9.35938 101.094 9.27344 101.742 9.27344C102.719 9.27344 103.574 9.41406 104.309 9.69531C105.051 9.97656 105.598 10.3594 105.949 10.8438C106.301 11.3203 106.543 11.9609 106.676 12.7656L104.613 13.0469C104.52 12.4062 104.246 11.9062 103.793 11.5469C103.348 11.1875 102.715 11.0078 101.895 11.0078C100.926 11.0078 100.234 11.168 99.8203 11.4883C99.4062 11.8086 99.1992 12.1836 99.1992 12.6133C99.1992 12.8867 99.2852 13.1328 99.457 13.3516C99.6289 13.5781 99.8984 13.7656 100.266 13.9141C100.477 13.9922 101.098 14.1719 102.129 14.4531C103.621 14.8516 104.66 15.1797 105.246 15.4375C105.84 15.6875 106.305 16.0547 106.641 16.5391C106.977 17.0234 107.145 17.625 107.145 18.3438C107.145 19.0469 106.938 19.7109 106.523 20.3359C106.117 20.9531 105.527 21.4336 104.754 21.7773C103.98 22.1133 103.105 22.2812 102.129 22.2812C100.512 22.2812 99.2773 21.9453 98.4258 21.2734C97.582 20.6016 97.043 19.6055 96.8086 18.2852ZM109.664 7.24609V4.82031H111.773V7.24609H109.664ZM109.664 22V9.55469H111.773V22H109.664ZM114.152 18.2852L116.238 17.957C116.355 18.793 116.68 19.4336 117.211 19.8789C117.75 20.3242 118.5 20.5469 119.461 20.5469C120.43 20.5469 121.148 20.3516 121.617 19.9609C122.086 19.5625 122.32 19.0977 122.32 18.5664C122.32 18.0898 122.113 17.7148 121.699 17.4414C121.41 17.2539 120.691 17.0156 119.543 16.7266C117.996 16.3359 116.922 16 116.32 15.7188C115.727 15.4297 115.273 15.0352 114.961 14.5352C114.656 14.0273 114.504 13.4688 114.504 12.8594C114.504 12.3047 114.629 11.793 114.879 11.3242C115.137 10.8477 115.484 10.4531 115.922 10.1406C116.25 9.89844 116.695 9.69531 117.258 9.53125C117.828 9.35938 118.438 9.27344 119.086 9.27344C120.062 9.27344 120.918 9.41406 121.652 9.69531C122.395 9.97656 122.941 10.3594 123.293 10.8438C123.645 11.3203 123.887 11.9609 124.02 12.7656L121.957 13.0469C121.863 12.4062 121.59 11.9062 121.137 11.5469C120.691 11.1875 120.059 11.0078 119.238 11.0078C118.27 11.0078 117.578 11.168 117.164 11.4883C116.75 11.8086 116.543 12.1836 116.543 12.6133C116.543 12.8867 116.629 13.1328 116.801 13.3516C116.973 13.5781 117.242 13.7656 117.609 13.9141C117.82 13.9922 118.441 14.1719 119.473 14.4531C120.965 14.8516 122.004 15.1797 122.59 15.4375C123.184 15.6875 123.648 16.0547 123.984 16.5391C124.32 17.0234 124.488 17.625 124.488 18.3438C124.488 19.0469 124.281 19.7109 123.867 20.3359C123.461 20.9531 122.871 21.4336 122.098 21.7773C121.324 22.1133 120.449 22.2812 119.473 22.2812C117.855 22.2812 116.621 21.9453 115.77 21.2734C114.926 20.6016 114.387 19.6055 114.152 18.2852Z" fill="black"/>
<path d="M130.453 20V18.3984H132.055V20H130.453ZM139.891 20V18.9531C139.365 19.776 138.591 20.1875 137.57 20.1875C136.909 20.1875 136.299 20.0052 135.742 19.6406C135.19 19.276 134.76 18.7682 134.453 18.1172C134.151 17.4609 134 16.7083 134 15.8594C134 15.0312 134.138 14.2812 134.414 13.6094C134.69 12.9323 135.104 12.4141 135.656 12.0547C136.208 11.6953 136.826 11.5156 137.508 11.5156C138.008 11.5156 138.453 11.6224 138.844 11.8359C139.234 12.0443 139.552 12.3177 139.797 12.6562V8.54688H141.195V20H139.891ZM135.445 15.8594C135.445 16.9219 135.669 17.7161 136.117 18.2422C136.565 18.7682 137.094 19.0312 137.703 19.0312C138.318 19.0312 138.839 18.7812 139.266 18.2812C139.698 17.776 139.914 17.0078 139.914 15.9766C139.914 14.8411 139.695 14.0078 139.258 13.4766C138.82 12.9453 138.281 12.6797 137.641 12.6797C137.016 12.6797 136.492 12.9349 136.07 13.4453C135.654 13.9557 135.445 14.7604 135.445 15.8594ZM149.094 17.3281L150.547 17.5078C150.318 18.3568 149.893 19.0156 149.273 19.4844C148.654 19.9531 147.862 20.1875 146.898 20.1875C145.685 20.1875 144.721 19.8151 144.008 19.0703C143.299 18.3203 142.945 17.2708 142.945 15.9219C142.945 14.526 143.305 13.4427 144.023 12.6719C144.742 11.901 145.674 11.5156 146.82 11.5156C147.93 11.5156 148.836 11.8932 149.539 12.6484C150.242 13.4036 150.594 14.4661 150.594 15.8359C150.594 15.9193 150.591 16.0443 150.586 16.2109H144.398C144.451 17.1224 144.708 17.8203 145.172 18.3047C145.635 18.7891 146.214 19.0312 146.906 19.0312C147.422 19.0312 147.862 18.8958 148.227 18.625C148.591 18.3542 148.88 17.9219 149.094 17.3281ZM144.477 15.0547H149.109C149.047 14.3568 148.87 13.8333 148.578 13.4844C148.13 12.9427 147.549 12.6719 146.836 12.6719C146.19 12.6719 145.646 12.888 145.203 13.3203C144.766 13.7526 144.523 14.3307 144.477 15.0547ZM154.625 20L151.469 11.7031H152.953L154.734 16.6719C154.927 17.2083 155.104 17.7656 155.266 18.3438C155.391 17.9062 155.565 17.3802 155.789 16.7656L157.633 11.7031H159.078L155.938 20H154.625Z" fill="black" fill-opacity="0.6"/>
<defs>
<clipPath id="clip0_2_63">
<rect width="24" height="24" fill="white" transform="translate(0 2)"/>
</clipPath>
</defs>
</svg>
